# xmcd CD database file
#
# Track frame offsets:
#	150
#	19239
#	36947
#	51496
#	68481
#	90304
#	109770
#	126327
#	143854
#	163245
#	183112
#	204929
#	223131
#	241657
#	259347
#	274878
#	291672
#
# Disc length: 4160 seconds
#
# Revision: 1
# Processed by: cddbd v1.4PL0 Copyright (c) Steve Scherf et al.
# Submitted via: CDex 1.51
#
DISCID=06103e11
DTITLE=Clifford Brown - Complete Blue Note Studio Master
DYEAR=1953
DGENRE=Jazz
TTITLE0=Bellarosa
TTITLE1=Carving The Rock
TTITLE2=Cookin'
TTITLE3=Brownie Speaks
TTITLE4=De-Dah
TTITLE5=You Go To My Head
TTITLE6=Capri
TTITLE7=Lover Man
TTITLE8=Tunpike
TTITLE9=Sketch One
TTITLE10=Get Happy
TTITLE11=Wail Bait
TTITLE12=Hymn Of The Orient
TTITLE13=Brownie Eyes
TTITLE14=Cherokee
TTITLE15=Easy Living
TTITLE16=Minor Mood
EXTD=YEAR: 1953
EXTT0=
EXTT1=
EXTT2=
EXTT3=
EXTT4=
EXTT5=
EXTT6=
EXTT7=
EXTT8=
EXTT9=
EXTT10=
EXTT11=
EXTT12=
EXTT13=
EXTT14=
EXTT15=
EXTT16=
PLAYORDER=
